<?xml version="1.0" standalone="no"?>
<!DOCTYPE svg PUBLIC "-//W3C//DTD SVG 20010904//EN"
 "http://www.w3.org/TR/2001/REC-SVG-20010904/DTD/svg10.dtd">
<svg version="1.0" xmlns="http://www.w3.org/2000/svg"
 width="512.000000pt" height="512.000000pt" viewBox="0 0 512.000000 512.000000"
 preserveAspectRatio="xMidYMid meet">
<metadata>
Created by potrace 1.14, written by Peter Selinger 2001-2017
</metadata>
<g transform="translate(0.000000,512.000000) scale(0.100000,-0.100000)"
fill="#000000" stroke="none">
<path d="M2393 4843 c-27 -14 -51 -30 -54 -35 -4 -6 -29 -12 -55 -14 -27 -2
-67 -6 -89 -9 -22 -3 -57 -9 -79 -12 -21 -3 -77 -16 -125 -29 -47 -13 -93 -26
-101 -28 -22 -6 -122 -46 -134 -54 -6 -4 -13 -7 -16 -8 -37 -11 -50 -18 -50
-26 0 -5 -4 -6 -10 -3 -5 3 -10 1 -10 -4 0 -6 -7 -11 -14 -11 -17 0 -204 -124
-256 -170 -167 -146 -273 -279 -365 -452 -19 -38 -35 -71 -34 -74 0 -4 -3 -10
-8 -13 -14 -10 -87 -218 -99 -283 -8 -45 -12 -63 -14 -63 -11 0 -23 -176 -26
-385 -2 -237 -3 -239 -61 -385 -22 -57 -27 -70 -66 -175 -19 -52 -39 -104 -43
-115 -4 -11 -8 -22 -9 -25 -1 -3 -6 -16 -12 -30 -5 -14 -21 -56 -34 -95 -13
-38 -28 -73 -33 -76 -5 -4 -5 -12 -2 -18 4 -6 2 -11 -3 -11 -6 0 -11 -6 -11
-12 0 -12 -109 -315 -131 -363 -13 -29 -32 -78 -34 -90 -2 -5 -22 -59 -45
-120 -23 -60 -44 -119 -46 -129 -2 -11 -8 -24 -14 -30 -5 -5 -10 -17 -10 -26
0 -8 -6 -27 -14 -41 -7 -15 -22 -51 -31 -80 -10 -30 -20 -58 -24 -64 -3 -5 -6
-14 -7 -20 -3 -12 -76 -205 -98 -258 -9 -20 -13 -37 -10 -37 4 0 2 -6 -3 -12
-5 -7 -20 -42 -33 -78 -13 -36 -27 -70 -32 -76 -5 -7 -8 -16 -7 -20 1 -5 -3
-21 -9 -36 -31 -73 -31 -76 -14 -80 9 -2 280 -2 602 -1 322 1 595 0 608 -3 22
-4 22 -5 5 -31 -28 -43 -25 -175 6 -233 22 -41 99 -129 107 -122 3 1 18 -5 34
-13 53 -27 137 -30 205 -6 33 12 62 26 63 31 2 6 8 10 13 10 11 0 55 45 69 69
12 21 1623 22 1658 0 12 -7 22 -17 22 -21 0 -11 38 -48 49 -48 5 0 11 -5 13
-10 7 -22 103 -48 163 -45 75 4 86 7 118 28 15 9 31 17 36 17 20 0 90 98 106
148 20 60 16 152 -7 200 l-15 29 619 -1 c684 -1 634 -6 607 61 -6 15 -15 37
-19 48 -5 11 -25 65 -45 120 -20 55 -44 118 -53 140 -9 22 -16 43 -15 47 2 5
-2 8 -9 8 -6 0 -9 3 -6 6 3 3 -8 40 -24 82 -16 42 -45 120 -65 172 -78 214
-104 284 -177 480 -42 113 -81 214 -85 225 -11 25 -23 57 -27 70 -1 6 -8 24
-15 40 -6 17 -13 35 -15 40 -1 6 -19 53 -39 105 -20 52 -43 115 -52 140 -8 25
-20 51 -26 58 -5 7 -7 15 -4 19 4 3 3 11 -1 17 -5 6 -17 34 -27 61 -9 28 -23
64 -30 80 -23 55 -29 70 -30 87 -1 10 -8 24 -15 33 -7 8 -9 15 -6 15 4 0 1 12
-8 28 -35 65 -38 94 -42 329 -3 233 -6 287 -19 348 -3 17 -9 46 -12 65 -10 66
-81 268 -126 357 -98 194 -218 347 -388 492 -78 66 -111 90 -123 90 -5 -1 -12
4 -15 9 -10 15 -130 85 -209 121 -88 40 -236 91 -263 91 -11 0 -28 4 -37 9
-21 11 -113 24 -246 35 -22 2 -44 10 -50 18 -6 7 -31 24 -55 35 -37 18 -61 22
-162 22 -108 0 -123 -3 -166 -26z"/>
</g>
</svg>
